<svg xmlns="http://www.w3.org/2000/svg" viewBox="0 0 186.1 186.1"><defs><style>.cls-1{fill:none;}.cls-2{fill:#fff4ec;}.cls-3{fill:#f7e4d5;}.cls-4{fill:#ec4e4e;}.cls-5{fill:#ff6969;}.cls-6{fill:#fff;}.cls-7{fill:#c43d3d;}</style></defs><g id="Layer_2" data-name="Layer 2"><g id="OBJECTS"><rect class="cls-1" width="186.1" height="186.1"/><g id="Layer0_8_MEMBER_0_FILL" data-name="Layer0 8 MEMBER 0 FILL"><path class="cls-2" d="M34,65.4l.21-.91c-.28.14-.53.28-.76.42q-2.2,1.32-3.2,7c-1.58,1.11-2.36,2.29-2.36,3.54q0,4.86,16.19,8.41a167,167,0,0,0,27.72,3.13q3.65.19,7.44.21c1.33,0,2.67.06,4,.06q22.92,0,39.12-3.4T138.6,75.4q0-1.87-2.37-3.54a9.88,9.88,0,0,0-8.33-6.6q-5.9-.7-7.65-6.6t-9.87-4.94q-8.17,1-10.35-4.86c-1.09-2.88-2.45-4.48-4.1-4.8q-3.2-.15-1.46-3.26v-.07a9.34,9.34,0,0,1-4.65,1.6c-2.41.09-4.06.21-4.94.34q-2.22.28-2.22,1.53c0,1.49,1.48,2.57,4.45,3.27v2a27.85,27.85,0,0,0-2.5,2,2.77,2.77,0,0,0-.84,2.15c0,2.37,3.11,3.59,9.31,3.69s9.31,1,9.31,2.85a2.42,2.42,0,0,1-1,2.36,6.92,6.92,0,0,1-3.12.48,43.14,43.14,0,0,1-5.36-1c-3-.65-4.61-1-4.93-1a22.15,22.15,0,0,0-6.74.76,5.59,5.59,0,0,0-4,5.7q0,2.85,3.68,4.52a18.35,18.35,0,0,0,7.65,1.46,32,32,0,0,0,10-1.74,34.45,34.45,0,0,1,11-1.81,42.59,42.59,0,0,1,6.74.35c2.22.42,3.34,1.37,3.34,2.85s-1.72,3-5.15,4.38a31.64,31.64,0,0,1-12.23,2.22q-5.07,0-14.87-2.36A70.38,70.38,0,0,0,71,74.92a81.35,81.35,0,0,0-13.83,1.66q-9,1.67-9.1,1.67a19.38,19.38,0,0,1-8.55-2.15q-5.91-3-5.91-8.06A11.57,11.57,0,0,1,34,65.4Z"/><path class="cls-3" d="M34.16,64.49,34,65.4A11.57,11.57,0,0,0,33.6,68q0,5.07,5.91,8.06a19.38,19.38,0,0,0,8.55,2.15q.13,0,9.1-1.67A81.35,81.35,0,0,1,71,74.92a70.38,70.38,0,0,1,16.39,2.43q9.81,2.36,14.87,2.36a31.64,31.64,0,0,0,12.23-2.22q5.14-2.08,5.15-4.38c0-1.48-1.12-2.43-3.34-2.85a42.59,42.59,0,0,0-6.74-.35,34.45,34.45,0,0,0-11,1.81,32,32,0,0,1-10,1.74A18.35,18.35,0,0,1,80.85,72q-3.67-1.66-3.68-4.52a5.59,5.59,0,0,1,4-5.7A22.15,22.15,0,0,1,87.94,61c.32,0,2,.32,4.93,1a43.14,43.14,0,0,0,5.36,1,6.92,6.92,0,0,0,3.12-.48,2.42,2.42,0,0,0,1-2.36q0-2.71-9.31-2.85c-6.2-.1-9.31-1.32-9.31-3.69a2.77,2.77,0,0,1,.84-2.15,27.85,27.85,0,0,1,2.5-2v-2c-3-.7-4.45-1.78-4.45-3.27q0-1.25,2.22-1.53c.88-.13,2.53-.25,4.94-.34a9.34,9.34,0,0,0,4.65-1.6q1.74-3.06-1-5.56A7.27,7.27,0,0,0,90,33.36c1.46,1.73,1.78,3,1,3.83a4.1,4.1,0,0,1-3.27,1.18c-1.41,0-2.55,0-3.4-.07s-2.37,0-4.52,0a8,8,0,0,0-5.49,2.43q-2.23,2.35-2.43,7.16T65.36,53.1c-4.23.22-7.12.43-8.69.62q-3.41.42-6.88,5.63a12.39,12.39,0,0,1-3.26,3.55q-1.59,1.17-6.26.9A15.16,15.16,0,0,0,34.16,64.49Z"/><path class="cls-4" d="M40.3,86.08c-12-2.45-19.87-3.7-20.11-7.13q-2,23.24,10.5,47.59a43.57,43.57,0,0,0,19.24,19.11q13.32,6.9,32.52,7.09,20.72-.21,34.05-7.09a43.75,43.75,0,0,0,19.25-19q9.17-17.85,10.49-35.09c.14-1.48.21-2.91.21-4.31a71,71,0,0,0-.21-8.26.52.52,0,0,1-.07.2c-.47,3.35-6.61,4.55-18.41,6.95a214.35,214.35,0,0,1-43.52,4c-1.28,0-3.57.05-4.85,0-2.49,0-5,.1-7.36,0A177.83,177.83,0,0,1,40.3,86.08Z"/><path class="cls-5" d="M20.19,78.74V79q.36,5.14,18.42,8.82A202.36,202.36,0,0,0,72,91.31c2.41.11,4.87.15,7.36.14,1.28,0,2.55.07,3.83.07q26.11,0,44.54-3.75,17.7-3.6,18.41-8.62a.52.52,0,0,0,.07-.2v-.21q0-3.84-10-6.88,2.37,1.67,2.37,3.54,0,4.86-16.26,8.41t-39.12,3.4c-1.36,0-2.7,0-4-.06q-3.8,0-7.44-.21A167,167,0,0,1,44,83.81q-16.2-3.54-16.19-8.41c0-1.25.78-2.43,2.36-3.54Q20.2,74.89,20.19,78.74Z"/></g><g id="Layer0_8_MEMBER_1_FILL" data-name="Layer0 8 MEMBER 1 FILL"><path class="cls-6" d="M84.83,113.81c-.6,1-1.16,2-1.67,3a22.84,22.84,0,0,0-1.53-3q-2.43-4-5.07-4a9,9,0,0,0-5,1.39c-2.09,1.34-3.13,3.48-3.13,6.39a13.62,13.62,0,0,0,3.89,9.94q2.93,3.06,11.05,6.25c5.23-2.13,8.83-4.21,10.77-6.25A13.62,13.62,0,0,0,98,117.56c0-2.91-1-5-3.13-6.39a9,9,0,0,0-5-1.39Q87.26,109.78,84.83,113.81Z"/></g><g id="Layer0_8_MEMBER_2_FILL" data-name="Layer0 8 MEMBER 2 FILL"><path class="cls-7" d="M155.76,122.58q-7.57,5.15-24,4l-3.89,3.81c1.15.4,3.88,3.41,9.39,3.41s10.85-4.43,15.07-7.66A15.22,15.22,0,0,0,155.76,122.58Z"/><path class="cls-4" d="M159,125.49l.27-.3c2.55-3.43,5.38-7.42,5.29-11.94-.23-6.57-3-12.41-7.17-15.44-3.8-2.74-9.95-3.08-16.39-3.08h-2.29l1,4.56h1.81q7.43,0,11.88,3.21,4.78,3.51,5.07,11.12a14.34,14.34,0,0,1-2.64,9,15.22,15.22,0,0,1-3.4,3.51,23.16,23.16,0,0,1-14.46,4.85c-5.51,0-8.85-.2-10-.6l-3.34,4.55q1.18.68,11.81.68a29.93,29.93,0,0,0,18.69-6.27c.93-.75,1.79-1.5,2.58-2.24C158.1,126.56,158.54,126,159,125.49Z"/><path class="cls-5" d="M159.23,125.19a23.09,23.09,0,0,0,7-15.75q.28-9.1-5.63-13.59T145,91.37a16.55,16.55,0,0,0-2.78.23,10.3,10.3,0,0,0-3.54,3.13H141q9.66,0,15.36,4.11,6.24,4.56,6.6,14.41A18.83,18.83,0,0,1,159.23,125.19Z"/></g></g></g></svg>