<svg xmlns="http://www.w3.org/2000/svg" viewBox="0 0 238.82 209.81"><defs><style>.cls-1{fill:#ff6969;}</style></defs><g id="Layer_2" data-name="Layer 2"><g id="OBJECTS"><path class="cls-1" d="M231.31,86.22c-4.3-3.88-8.49-7.89-12.75-11.82C196.44,54.05,175,33,152.17,13.37c-4.71-4-9.37-8.18-15-10.85-12.59-5.91-24.68-1.54-27,14.26a128.51,128.51,0,0,0-.86,16.41c-.07,4.67-2,7.09-6.56,8.34a49.11,49.11,0,0,1-11.36,1.33c-15.11.5-30.23.94-45.34.89-9,0-17.91-.33-26.83,1.08A16.74,16.74,0,0,0,7.42,52.34c-3.64,5.38-4.69,11.75-5.36,18C.71,82.94.4,95.66.05,108.37c-.32,11.4,1,22.72,2.05,34a33.83,33.83,0,0,0,2.09,9.69c3.4,8.44,10,12,18.62,12.6,8.39.62,16.79.19,25.18.19,2.58,0,5.16,0,7.73,0,10.4-.16,20.76.91,31.15.94a92.5,92.5,0,0,1,14.4.95c4.92.79,8,4.19,8,9.12,0,2.74-.19,5.5,0,8.23.47,5.86.74,11.77,3.38,17.23,2.25,4.66,6.69,9.08,13.9,8.38a30,30,0,0,0,15.49-6.17c12-9.15,23.13-19.3,34.12-29.62,18.59-17.46,37.34-34.77,55.89-52.28C241.46,112.8,240.91,94.9,231.31,86.22ZM23.72,58.51h-.91a15.31,15.31,0,0,0-5.22.79c-1.73.47-3.27.4-3.79-1.88-.77-3.38-.35-4.6,2.26-5.22,2.33-.56,4.69-1,7.06-1.38,2.74-.39,4.06,1,4.19,4.2C27.43,58,26.94,58.5,23.72,58.51Zm45.44-3.15c-.45,2.12-2.29,2.42-4.07,2.5-5.9.28-11.75-.88-16.82-.49-3.82,0-6.81,0-9.79,0-2.44,0-3.88-1.23-4-3.19-.11-2.16,1.13-3.55,3.72-3.76a142.85,142.85,0,0,1,25.58-.2,7.4,7.4,0,0,1,2.63.67C68.21,51.79,69.65,53.11,69.16,55.36Zm122.13,5.27a1.77,1.77,0,0,1-2.26.43,18.74,18.74,0,0,1-5.17-3.37,165.63,165.63,0,0,1-16.13-16.1,5.16,5.16,0,0,1-1.5-2.81c-.11-1,.16-1.66,1.35-1.68a8.06,8.06,0,0,1,3.34,2c3.84,3.19,6.75,7.29,10.34,10.73a82.73,82.73,0,0,0,8.18,7.26,8.9,8.9,0,0,1,1.47,1.34C191.45,59.05,192,59.76,191.29,60.63Z"/></g></g></svg>