<svg xmlns="http://www.w3.org/2000/svg" xmlns:xlink="http://www.w3.org/1999/xlink" viewBox="0 0 186.1 186.1"><defs><style>.cls-1{fill:none;}.cls-2{fill:#597e32;}.cls-3{fill:#749f48;}.cls-4{fill:#ffe29c;}.cls-5{fill:#c28449;}.cls-6{fill:url(#linear-gradient);}</style><linearGradient id="linear-gradient" x1="82.75" y1="146.24" x2="113.07" y2="68.25" gradientUnits="userSpaceOnUse"><stop offset="0.3" stop-color="#ffac3d"/><stop offset="0.5" stop-color="#ffbb4c"/><stop offset="0.78" stop-color="#ffcb5c"/><stop offset="1" stop-color="#ffd162"/></linearGradient></defs><g id="Layer_2" data-name="Layer 2"><g id="OBJECTS"><rect class="cls-1" width="186.1" height="186.1"/><g id="Layer0_13_MEMBER_0_FILL" data-name="Layer0 13 MEMBER 0 FILL"><path class="cls-2" d="M119.81,48.12a7.83,7.83,0,0,1,6.59-.38,15,15,0,0,1,3.83,2.36l3.25-3.39a7.63,7.63,0,0,0-3-1.69,16.53,16.53,0,0,0-6.65-.25,23.41,23.41,0,0,0-6.29,1.61c-.2-.14-.41-.27-.65-.41q-3.8-1.57-10.51-.81a28.68,28.68,0,0,0-14.45,6.25c-3.64,3.09-6.06,6.16-7.23,9.19a24.9,24.9,0,0,1,2.78.4,15.14,15.14,0,0,1,3.22-4.34,25.93,25.93,0,0,1,6-4.63,37.73,37.73,0,0,1,8.62-3.56q4.94-1.48,8-.11-4.35,2.37-4.11,5.08a6,6,0,0,0,1.18,2.69,4.51,4.51,0,0,0,4.36,1.41A8.07,8.07,0,0,0,118.28,56a5,5,0,0,0,2.4-5.16,6.28,6.28,0,0,0-.87-2.73M113,52c0-.53.74-1.26,2.29-2.19l.23,0a3.71,3.71,0,0,1,1.58,2.67c.13.91-.63,1.48-2.29,1.71-1,.12-1.62-.63-1.81-2.23M61.69,57q5.25.77,7.17,2.69a10.4,10.4,0,0,1,2.07,2.59,11.31,11.31,0,0,1,1.32-1,6.46,6.46,0,0,1,1.22-.85q-2.61-5.26-10.42-6.31T49.71,55.53a10.34,10.34,0,0,0-6.36,8.61,29.06,29.06,0,0,0-.2,3,6.23,6.23,0,0,0,4.71.68,8.75,8.75,0,0,1-.11-3.63c.43-2.56,2-4.56,4.88-6A15,15,0,0,1,61.69,57Z"/></g><g id="Layer0_13_MEMBER_1_FILL" data-name="Layer0 13 MEMBER 1 FILL"><path class="cls-3" d="M46.13,43.14q-6.89,5.16-.16,15,3.59,5.3,13,6.25,9,1,14.15-2.62l-.4-1.35a13.24,13.24,0,0,1-5.75,1.41,34.45,34.45,0,0,1-10.7-1c-3.21-.9-5.42-2.23-6.61-4a11.45,11.45,0,0,1-2-4.92,5.82,5.82,0,0,1,2.08-4.59,6,6,0,0,1,5-2,21.36,21.36,0,0,1,7.27,2.53,46.94,46.94,0,0,1,7.64,4.59,55.1,55.1,0,0,1,6.7,5.43l3.18-1.28A78,78,0,0,0,62.2,43.27Q53,37.92,46.13,43.14M79.7,56.84l3.4-.21a67.6,67.6,0,0,1,3.53-7.87,71.09,71.09,0,0,1,5-7.51A23.21,23.21,0,0,1,97,35.81a6.28,6.28,0,0,1,5.36-.3c2,.7,3.32,1.76,3.8,3.2a10.73,10.73,0,0,1,.36,5.3q-.48,3.24-4.16,6.48a33,33,0,0,1-9.26,5.56,11.89,11.89,0,0,1-5.73,1.34l.25,1.32q6.14,1,13.86-3.71,8.06-4.94,9-11.33,1.71-11.79-6.73-13.52T89.35,37.24A82.24,82.24,0,0,0,79.7,56.84Z"/></g><g id="Layer0_13_MEMBER_2_FILL" data-name="Layer0 13 MEMBER 2 FILL"><path class="cls-4" d="M130.75,141.8q13.63-6.69,12.64-9.58a1.54,1.54,0,0,0-.6-.8,3.34,3.34,0,0,0-1.33-.58q-3.54-1.07-13.42.26-14.43,1.85-32.08,5.75t-31.13,8.41q-9.59,3.17-12,5.66a2.83,2.83,0,0,0-.85,2q.65,3.15,15.19,3.29a141.63,141.63,0,0,0,32.2-3.84,141.45,141.45,0,0,0,31.37-10.58m6.27-8.54q7,0-5.62,6.2T98.28,150.72q-18.42,3.87-31.94,3.73t-9.05-2.26a136.41,136.41,0,0,1,13.65-5.11q10.69-3.72,27-7.58t24.1-5A87.39,87.39,0,0,1,137,133.26Z"/><path class="cls-5" d="M131.4,139.46q12.63-6.21,5.62-6.2a87.39,87.39,0,0,0-15,1.22q-7.89,1.23-24.1,5t-27,7.58a136.41,136.41,0,0,0-13.65,5.11q-4.47,2.12,9.05,2.26t31.94-3.73Q118.79,145.59,131.4,139.46Z"/><path class="cls-6" d="M129.73,112.37q-6-14.41-15.67-34.78T87.48,56.12q-17.06-1.21-24,7.79T55.35,87.29q-1.29,14.29-.12,36.74.85,17.52-2.39,26.89,2.4-2.49,12-5.66Q78.3,140.84,96,136.85T128,131.1q9.89-1.33,13.42-.26Q135.69,126.68,129.73,112.37Z"/></g><g id="Layer0_13_MEMBER_2_MEMBER_0_FILL" data-name="Layer0 13 MEMBER 2 MEMBER 0 FILL"><path class="cls-4" d="M93.36,67.14q9.24,3,15.67,20.68t4.32,27.23q-2.16,9.53-1.5,14.74,4.26-3.58,12.75-2.72t10.74.84a27,27,0,0,1-9-8.61q-3.48-5.35-6.33-17.21a159,159,0,0,0-7.86-20.74Q104.87,66,92.6,62.62,87.86,65.34,93.36,67.14Z"/></g></g></g></svg>