<svg xmlns="http://www.w3.org/2000/svg" viewBox="0 0 186.1 186.1"><defs><style>.cls-1{fill:none;}.cls-2{fill:#ff9c4f;}.cls-3{fill:#ffc772;}.cls-4{fill:#ec4e4e;}.cls-5{fill:#fde9e9;}.cls-6{fill:#fff;}.cls-7{fill:#ffde72;}</style></defs><g id="Layer_2" data-name="Layer 2"><g id="OBJECTS"><rect class="cls-1" width="186.1" height="186.1"/><g id="Layer0_12_MEMBER_0_FILL" data-name="Layer0 12 MEMBER 0 FILL"><path class="cls-2" d="M64.77,41.49c0-1,.07-1.9.1-2.74a59.67,59.67,0,0,0-7.58-3,11.89,11.89,0,0,0-2.47,2.89,10,10,0,0,0-1.71,4.14,9.65,9.65,0,0,0,0,2.68c1.64.09,3.36.25,5.17.5a62.7,62.7,0,0,1,7.13,1.37,18.05,18.05,0,0,1-.62-5.79M89,62.37c-.11-1.22-1-3-2.63-5.39A48.16,48.16,0,0,0,78.45,48c-1.28-1.16-2.56-2.22-3.86-3.21a7.82,7.82,0,0,0,.48,4.84c.21.47.5,1.1.89,1.86a1.56,1.56,0,0,1,.56.35q4.89,3,11.12,10.1a12.78,12.78,0,0,0,1.36.39m57.22-7a9.56,9.56,0,0,0-.6-4.45A12.08,12.08,0,0,0,144,47.47a59,59,0,0,0-8.11.91q-.24,1.24-.63,2.67a19.39,19.39,0,0,1-2.08,5.43,58.71,58.71,0,0,1,7.17.57c1.81.24,3.51.54,5.12.89a7.69,7.69,0,0,0,.75-2.58m-39.88,9.36a13.18,13.18,0,0,0,1.41,0q7.89-5.17,13.41-6.77a1.5,1.5,0,0,1,.63-.19q.87-1,1.35-1.56a7.84,7.84,0,0,0,1.76-4.53c-1.52.6-3,1.29-4.58,2.07a48,48,0,0,0-10,6.49Q107,63,106.34,64.72Z"/><path class="cls-3" d="M77.2,27.53q-5.92-.81-9.14,2.58-2.52,2.69-3.19,8.64c0,.84-.06,1.76-.1,2.74a18.05,18.05,0,0,0,.62,5.79,17,17,0,0,0,4.84,7.91l6,5.65,7.39,1A92.36,92.36,0,0,1,76,51.53c-.39-.76-.68-1.39-.89-1.86a7.82,7.82,0,0,1-.48-4.84l.24-.77q.93-2.49,4.83-2,6.47.87,9.72,7.56a18.25,18.25,0,0,1,1.11,13.11l5.73.78q1.4-2.29,2.33-9.76,1.22-8.43-4.87-16.57A23.48,23.48,0,0,0,77.2,27.53m57.92,11.68Q133,35.1,127,34.28a23.53,23.53,0,0,0-18.47,4.95q-8,6.23-9.11,14.68c-.72,5-.83,8.3-.35,10l5.74.77a18.21,18.21,0,0,1,4.56-12.34q4.92-5.58,11.38-4.7,3.89.53,4.14,3.18c0,.27,0,.54,0,.81a7.84,7.84,0,0,1-1.76,4.53q-.48.6-1.35,1.56a92.42,92.42,0,0,1-10.14,7.89l7.39,1c1.39-.71,3.83-2,7.3-3.85a17.43,17.43,0,0,0,6.84-6.32,19.39,19.39,0,0,0,2.08-5.43q.39-1.42.63-2.67C136.51,44.44,136.26,41.38,135.12,39.21Z"/></g><g id="Layer0_12_MEMBER_1_FILL" data-name="Layer0 12 MEMBER 1 FILL"><path class="cls-4" d="M154.23,90.36q.32-3.44.53-6.85Q91.91,80.38,38,69.75q-.77,3.47-1.5,7A500.34,500.34,0,0,0,29,137.23q-1,8.1,6.42,9.6a529,529,0,0,0,102.48,11.89q7.14.22,7.62-7.15A504.19,504.19,0,0,0,154.23,90.36Z"/></g><g id="Layer0_12_MEMBER_2_FILL" data-name="Layer0 12 MEMBER 2 FILL"><path class="cls-5" d="M147.17,68.65q-8.7-1.56-27.67-3.42-6.44-.6-34.23-4.11-27.21-3.34-34.45-4.47T40.35,58.12c-2.19,1.69-3.49,3.23-3.92,4.64s-.9,3.42-1.43,6.05-.47,4.52,0,5.65q39.35,5,73.49,8.76t47.38,5.69a46.26,46.26,0,0,0,1.26-6.82,32.33,32.33,0,0,0-.59-7.06Q155.88,70.28,147.17,68.65Z"/></g><g id="Layer0_12_MEMBER_3_FILL" data-name="Layer0 12 MEMBER 3 FILL"><path class="cls-6" d="M145.53,151.57a2.48,2.48,0,0,0,0-.27,3,3,0,0,0-1.49.6,2.89,2.89,0,0,0-1.14,2,2.86,2.86,0,0,0,.57,2.23,2.59,2.59,0,0,0,.35.38,8.36,8.36,0,0,0,1.68-4.94m4.92-27.88c.28-1.94.55-3.89.8-5.87l-.4,0a2.94,2.94,0,0,0-2.23.57,2.87,2.87,0,0,0-1.14,2,2.93,2.93,0,0,0,.57,2.23,2.89,2.89,0,0,0,2,1.14,1.08,1.08,0,0,0,.4,0M29,136.57c0,.21,0,.44,0,.66a10.89,10.89,0,0,0,.35,4.82,1.4,1.4,0,0,0,.51-.27,3.06,3.06,0,0,0,.57-4.22,2.81,2.81,0,0,0-1.41-1m3.45-34.79q-.37,2.86-.73,5.81a2.31,2.31,0,0,0,.59.14,2.95,2.95,0,0,0,3.37-2.56,2.93,2.93,0,0,0-.57-2.23,2.89,2.89,0,0,0-2-1.14,3,3,0,0,0-.67,0m40.68,42.65a2.89,2.89,0,0,0-1.14,2,2.83,2.83,0,0,0,.57,2.22A3,3,0,0,0,78,147.23a2.86,2.86,0,0,0-.57-2.23,3.06,3.06,0,0,0-4.22-.57m28.33,6A3,3,0,1,0,98.12,153a2.93,2.93,0,0,0,2.23-.57,2.87,2.87,0,0,0,1.14-2m18.75.39a2.87,2.87,0,0,0-1.14,2,2.93,2.93,0,0,0,.57,2.23,2.87,2.87,0,0,0,2,1.14,3,3,0,0,0,2.79-4.79,2.87,2.87,0,0,0-2-1.14,2.93,2.93,0,0,0-2.23.57m-71.19-5.36A3,3,0,0,0,54.41,144a2.93,2.93,0,0,0-.57-2.23,3,3,0,0,0-4.79,3.65m12.52-21.54A3,3,0,0,0,63,129.29a2.93,2.93,0,0,0,2.23-.57,2.89,2.89,0,0,0,1.14-2,2.82,2.82,0,0,0-.57-2.22,3,3,0,0,0-4.22-.58m27.68,2.88a3,3,0,0,0-3.37,2.57,2.94,2.94,0,0,0,.57,2.23,3.06,3.06,0,0,0,4.22.57,3,3,0,0,0-1.42-5.37m25.46,3.46a3,3,0,0,0-3.38,2.56,2.89,2.89,0,0,0,.58,2.23,3,3,0,0,0,5.36-1.42,2.93,2.93,0,0,0-.57-2.23,2.87,2.87,0,0,0-2-1.14m28,6.82a2.83,2.83,0,0,0-.57-2.22,3.06,3.06,0,1,0,.57,2.22M35,122.46a3,3,0,0,0,2.57,3.37,2.95,2.95,0,0,0,3.37-2.56,2.93,2.93,0,0,0-.57-2.23,2.87,2.87,0,0,0-2-1.14A3,3,0,0,0,35,122.46m47.82-10.9a2.95,2.95,0,0,0-2.56-3.37,2.95,2.95,0,0,0-3.37,2.56,2.95,2.95,0,0,0,2.56,3.37,2.95,2.95,0,0,0,3.37-2.56m22.4,5.19a2.89,2.89,0,0,0,1.14-2,2.82,2.82,0,0,0-.57-2.22,3,3,0,1,0-.57,4.22m24.68,1.2a3,3,0,1,0-5.93-.81,2.93,2.93,0,0,0,.57,2.23,2.87,2.87,0,0,0,2,1.14,2.93,2.93,0,0,0,2.23-.57,2.87,2.87,0,0,0,1.14-2M56.69,105a2.93,2.93,0,0,0-2.23.57,2.89,2.89,0,0,0-1.14,2,2.82,2.82,0,0,0,.57,2.22,2.88,2.88,0,0,0,2,1.15,2.93,2.93,0,0,0,2.23-.57A3,3,0,0,0,56.69,105M45.75,87.59a3,3,0,1,0-5.93-.8,2.95,2.95,0,0,0,2.56,3.37,2.93,2.93,0,0,0,2.23-.57,2.89,2.89,0,0,0,1.14-2M145,98a2.95,2.95,0,0,0-3.37,2.56,2.93,2.93,0,0,0,.57,2.23A3,3,0,1,0,145,98m-25.45-3.46a2.89,2.89,0,0,0-2.23.58,3,3,0,0,0-.57,4.21,2.9,2.9,0,0,0,2,1.15A2.93,2.93,0,0,0,121,100a3,3,0,0,0-1.42-5.37M93.29,97.07a3,3,0,1,0-2-1.15,2.91,2.91,0,0,0,2,1.15M66.41,88.25a2.87,2.87,0,0,0-1.14,2,2.93,2.93,0,0,0,.57,2.23,3,3,0,1,0,.57-4.22Z"/></g><g id="Layer0_12_MEMBER_4_FILL" data-name="Layer0 12 MEMBER 4 FILL"><path class="cls-7" d="M103.76,63A33.81,33.81,0,0,0,92.28,61.4L79.63,154.65a30,30,0,0,0,11.48,1.55Z"/></g></g></g></svg>