<svg xmlns="http://www.w3.org/2000/svg" viewBox="0 0 186.1 186.1"><defs><style>.cls-1{fill:none;}.cls-2{fill:#5e8a30;}.cls-3{fill:#82b151;}.cls-4{fill:#d73939;}.cls-5{fill:#6b983d;}.cls-6{fill:#ec4e4e;}</style></defs><g id="Layer_2" data-name="Layer 2"><g id="OBJECTS"><rect class="cls-1" width="186.1" height="186.1"/><g id="Layer0_11_MEMBER_0_FILL" data-name="Layer0 11 MEMBER 0 FILL"><path class="cls-2" d="M126.13,99.45q-4.65,1.18-6.11-.19c-1.65-1.46-2.32-3.87-2-7.25q.1-1,.15-1.71c.1-1.14-1.08-1.45-3.55-1a6.22,6.22,0,0,1-6.2-1.89c-.21-.92-1.26-.67-3.17.75a6.43,6.43,0,0,1-6.72.64,7.87,7.87,0,0,1-1.1,1,8.46,8.46,0,0,1-1.54,1.49c1.14.66,1.7,2,1.68,4,.2,2.09,0,3.52-.7,4.31s-.52,1.38.44,1.79q1.45,1.08,1.2,5.73c-.36,3.25.24,4.3,1.82,3.15A9.71,9.71,0,0,1,102,110q5-1.09,7.38,1.14,1.62,1.35.66,6.35c-.7,3.36-.24,4.68,1.38,3.94q2.64-1.87,9.35-1.37a43,43,0,0,1,9.77,1.32c1.91.66,2.77.67,2.59,0a51.34,51.34,0,0,1-3.36-12.17q-.76-6.52.67-9.34Q130.78,98.56,126.13,99.45Z"/></g><g id="Layer0_11_MEMBER_1_FILL" data-name="Layer0 11 MEMBER 1 FILL"><path class="cls-3" d="M133.32,97Q155.57,94.1,167,82.31a.28.28,0,0,1,.34-.13.49.49,0,0,1,.36.09.28.28,0,0,1,.13.34.71.71,0,0,1-.11.43Q156.08,95,133.43,98q-22.38,2.83-38.26-2.71a.75.75,0,0,1-.32-.24,1.31,1.31,0,0,1,0-.37.52.52,0,0,1,.24-.32.72.72,0,0,1,.39,0Q111.17,99.79,133.32,97Z"/></g><g id="Layer0_11_MEMBER_1_MEMBER_0_FILL" data-name="Layer0 11 MEMBER 1 MEMBER 0 FILL"><path class="cls-3" d="M126.52,105.18a2.54,2.54,0,0,1-2.19,2.46,2.31,2.31,0,0,1-2.93-1.55,22.3,22.3,0,0,1-1.29-5.14l-.21-.06a8.58,8.58,0,0,0-3.53-2.16.72.72,0,0,0-.27-.15.81.81,0,0,1,0-.37.34.34,0,0,0,.13-.2,1.05,1.05,0,0,0,.25-.08,12.22,12.22,0,0,1,3.84,2.4l.22.06.05.09.09,0a4.61,4.61,0,0,1,3.49,1.16c1.64,1.1,2.41,2.29,2.32,3.59m2.4-5,.21.06.05.09.1-.06a4.35,4.35,0,0,1,3.55,1c1.73.92,2.6,2,2.6,3.36a2.57,2.57,0,0,1-2.06,2.57c-1.29.46-2.32,0-3.07-1.36a22.22,22.22,0,0,1-1.53-5l-.22-.06a9.58,9.58,0,0,0-3.67-1.9l-.29-.08a.48.48,0,0,1,0-.39.27.27,0,0,0,.12-.19.47.47,0,0,0,.27-.16,13.09,13.09,0,0,1,4,2.21M131.64,90a2.38,2.38,0,0,1,2.88-1.66,2.59,2.59,0,0,1,2.28,2.28c.19,1.38-.5,2.63-2.08,3.79a5,5,0,0,1-3.48,1.35l-.07,0,0,.07-.18.1a12.45,12.45,0,0,1-3.73,2.58.2.2,0,0,1-.22-.06.72.72,0,0,1-.17-.2.61.61,0,0,1,0-.3.37.37,0,0,1,.13-.2,9.2,9.2,0,0,0,3.54-2.4l.18-.1a21.49,21.49,0,0,1,.94-5.23m10.47,8.67c1.87.6,2.93,1.55,3.2,2.84a2.57,2.57,0,0,1-1.62,2.91c-1.15.71-2.23.45-3.22-.78a22.29,22.29,0,0,1-2.4-4.68.46.46,0,0,0-.23,0,8.89,8.89,0,0,0-4-1.23.76.76,0,0,0-.3,0,.93.93,0,0,1-.12-.41.27.27,0,0,0,.11-.13.45.45,0,0,0,.22-.24,13.61,13.61,0,0,1,4.34,1.39l.29.08.09,0a4.3,4.3,0,0,1,3.65.29m12-1.65a2.71,2.71,0,0,1-.87,3.26c-.92,1-2,1-3.21.06a19.8,19.8,0,0,1-3.59-3.93l-.18.1A10.11,10.11,0,0,0,142,96.4s-.13,0-.25.08a.76.76,0,0,1-.21-.36l0-.14a.72.72,0,0,0,.15-.27,12.08,12.08,0,0,1,4.51.22h.3l0-.07a4.27,4.27,0,0,1,3.68-.69c1.95.12,3.23.74,3.84,1.87m-9.45-9.31c.4,1.32-.07,2.7-1.41,4.11a4.73,4.73,0,0,1-3.1,1.91l-.09,0,0,.07-.18.11a12.54,12.54,0,0,1-3.23,3.24.29.29,0,0,1-.23,0,1.46,1.46,0,0,1-.18-.2.23.23,0,0,1-.08-.25c0-.1,0-.19.07-.29a8.26,8.26,0,0,0,3.09-3l.18-.1a21.55,21.55,0,0,1,0-5.34,2.37,2.37,0,0,1,2.5-2.22,2.67,2.67,0,0,1,2.7,1.87M156.1,80.6q1.28,1.49.37,4.28a4.74,4.74,0,0,1-2,3.06l-.11.12.07,0-.15.26a11.19,11.19,0,0,1-1.6,4.29c0,.05-.07.09-.18.11a.81.81,0,0,1-.27-.15s-.08-.07-.1-.18a.45.45,0,0,0-.07-.32,7.3,7.3,0,0,0,1.53-4,.25.25,0,0,1,.11-.12,20.22,20.22,0,0,1-2.22-4.78c-.4-1.53,0-2.56,1.22-3.1a2.79,2.79,0,0,1,3.36.52M147.53,83a2.71,2.71,0,0,1,3.14,1.07c.7,1.15.6,2.6-.33,4.33a5.07,5.07,0,0,1-2.54,2.67l-.09,0,0,.09-.19.18a11.21,11.21,0,0,1-2.28,4,.71.71,0,0,1-.26.09,1,1,0,0,1-.17-.2c-.05,0-.08-.07-.1-.18a.76.76,0,0,0,0-.3A8.26,8.26,0,0,0,147,91.09a.19.19,0,0,1,.1-.12,22.46,22.46,0,0,1-1.35-5.16c-.15-1.56.46-2.49,1.81-2.79m13.35,14.39a2.17,2.17,0,0,1-3.2.29,23.12,23.12,0,0,1-3.79-3.76.31.31,0,0,0-.13.19,9,9,0,0,0-4.28.07.44.44,0,0,0-.25.09.46.46,0,0,1-.21-.36l0-.16a.25.25,0,0,0,.15-.27,13.5,13.5,0,0,1,4.58-.06h.3l0-.07a4.39,4.39,0,0,1,3.68-.92c1.94,0,3.23.51,3.89,1.65a2.72,2.72,0,0,1-.73,3.31m.16-6.58a.34.34,0,0,0-.13.2,8.89,8.89,0,0,0-4.28.06.46.46,0,0,0-.25.09.44.44,0,0,1-.21-.36l0-.16a.25.25,0,0,0,.15-.27,13.76,13.76,0,0,1,4.58-.06h.31l0-.07a4.36,4.36,0,0,1,3.67-.92c1.94,0,3.24.52,3.89,1.66a2.7,2.7,0,0,1-.73,3.3,2.17,2.17,0,0,1-3.2.29A23.52,23.52,0,0,1,161,90.83m-.6-5.72-.11.13h.08l-.15.27a11.26,11.26,0,0,1-1.61,4.29s-.07.08-.18.1a.6.6,0,0,1-.26-.14c-.05,0-.09-.08-.11-.18a.41.41,0,0,0-.06-.33,7.42,7.42,0,0,0,1.53-4,.22.22,0,0,1,.11-.13,19.66,19.66,0,0,1-2.22-4.78c-.41-1.53,0-2.56,1.21-3.1a2.8,2.8,0,0,1,3.36.52c.85,1,1,2.42.37,4.29a4.64,4.64,0,0,1-2,3m9.66-.23c2-.28,3.33.08,4.12,1.11a2.75,2.75,0,0,1-.29,3.34c-.72,1.18-1.78,1.43-3.17.75a22.51,22.51,0,0,1-4.15-3.24.25.25,0,0,0-.13.19,8.81,8.81,0,0,0-4.3.68.46.46,0,0,0-.25.09.48.48,0,0,1-.22-.29l0-.17c.09-.12.11-.22.08-.28a11.61,11.61,0,0,1,4.6-.67l.32-.07,0-.09a4.23,4.23,0,0,1,3.48-1.35M173.5,79a3,3,0,0,1,1.44,3.13c-.2,1.31-1.11,2-2.72,1.93a20.15,20.15,0,0,1-5-.82l-.34-.7,0-.07a4.66,4.66,0,0,1,2.4-2.71c1.69-1,3.11-1.27,4.24-.76m-9.22-5.67a2.8,2.8,0,0,1,3.36.52q1.28,1.48.38,4.29a4.74,4.74,0,0,1-2,3l-.11.13H166l-.15.27a11.49,11.49,0,0,1-1.6,4.29s-.08.08-.18.1a.59.59,0,0,1-.27-.14s-.08-.08-.1-.18a.46.46,0,0,0-.07-.33,7.42,7.42,0,0,0,1.53-4,.22.22,0,0,1,.11-.13,20,20,0,0,1-2.22-4.78c-.4-1.53,0-2.56,1.21-3.1M123.7,90.41a2.29,2.29,0,0,1,2.91-1.5,2.52,2.52,0,0,1,2.17,2.41q.15,2-2.27,3.65a4.89,4.89,0,0,1-3.57,1.11l-.07,0,0,.07-.18.1a11.85,11.85,0,0,1-3.89,2.31q-.09,0-.21-.06a.79.79,0,0,1-.18-.2.6.6,0,0,1,0-.3,1,1,0,0,1,.2-.18,10.22,10.22,0,0,0,3.62-2.15l.18-.1A21.29,21.29,0,0,1,123.7,90.41Z"/></g><g id="Layer0_11_MEMBER_2_FILL" data-name="Layer0 11 MEMBER 2 FILL"><path class="cls-2" d="M86.14,99a.57.57,0,0,0-.37-.07q-16.48,1.23-37.22-7.28T19.87,68.78a.69.69,0,0,0-.29-.23.88.88,0,0,0-.44.08.62.62,0,0,0-.23.29.57.57,0,0,0,.08.37Q27.14,84,48.19,92.61T85.84,100a.42.42,0,0,0,.37-.22.37.37,0,0,0,.15-.37A.64.64,0,0,0,86.14,99Z"/></g><g id="Layer0_11_MEMBER_2_MEMBER_0_FILL" data-name="Layer0 11 MEMBER 2 MEMBER 0 FILL"><path class="cls-2" d="M12,70.62a2.74,2.74,0,0,0-.59,3.3c.39,1.33,1.35,1.84,2.87,1.55a22.92,22.92,0,0,0,4.86-2.06.34.34,0,0,1,.07.22,8.84,8.84,0,0,1,4,1.76c.05,0,.12.06.22.15a.48.48,0,0,0,.3-.22l.07-.14q-.07-.23,0-.3A11.55,11.55,0,0,0,19.5,73l-.29-.14.07-.08a4.22,4.22,0,0,0-3-2.2q-2.73-1.19-4.27,0m16.26,9.19a.25.25,0,0,1-.08-.3,13.9,13.9,0,0,0-4.41-1.25l-.3-.07v-.07a4.32,4.32,0,0,0-3.31-1.84c-1.86-.54-3.26-.35-4.19.59a2.71,2.71,0,0,0-.14,3.38c.58,1.23,1.59,1.59,3,1.1a22.22,22.22,0,0,0,4.63-2.65.32.32,0,0,1,.08.23,9,9,0,0,1,4.12,1.17s.12.05.22.15a.46.46,0,0,0,.29-.29l.08-.15M14.5,64.07a3,3,0,0,0-2.2,2.65c-.15,1.32.56,2.18,2.13,2.57a20.22,20.22,0,0,0,5.07.52l.52-.59v-.08a4.67,4.67,0,0,0-1.62-3.23c-1.37-1.42-2.67-2-3.9-1.84m7-3.46q-1.62,1.11-1.47,4a4.71,4.71,0,0,0,1.1,3.45l.07.15h-.07l.07.29a11.33,11.33,0,0,0,.45,4.57s0,.09.14.14a.66.66,0,0,0,.3-.07c.05,0,.1,0,.14-.15a.41.41,0,0,1,.15-.29,7.36,7.36,0,0,1-.44-4.27.21.21,0,0,0-.07-.15,20.06,20.06,0,0,0,3.38-4c.78-1.37.66-2.48-.37-3.31a2.8,2.8,0,0,0-3.38-.37m7.79,5.59a2.81,2.81,0,0,0-3.38-.37q-1.62,1.11-1.47,4a4.76,4.76,0,0,0,1.1,3.46l.08.14h-.08l.08.3a11.3,11.3,0,0,0,.44,4.56s.05.1.15.14a.65.65,0,0,0,.29-.07q.07,0,.15-.15a.46.46,0,0,1,.14-.29,7.45,7.45,0,0,1-.44-4.27.19.19,0,0,0-.07-.14,19.74,19.74,0,0,0,3.38-4c.79-1.37.66-2.47-.37-3.31m5.08,18.46a.23.23,0,0,1-.07-.29,13.39,13.39,0,0,0-4.42-1.25L29.58,83V83a4.37,4.37,0,0,0-3.31-1.84q-2.79-.81-4.19.59a2.7,2.7,0,0,0-.15,3.38,2.17,2.17,0,0,0,3,1.11,23.23,23.23,0,0,0,4.63-2.65.29.29,0,0,1,.07.22A8.92,8.92,0,0,1,33.77,85s.12.05.22.14a.42.42,0,0,0,.3-.29l.07-.15m.29-10.88q1.18-2.07-.36-3.31a2.82,2.82,0,0,0-3.39-.37q-1.62,1.09-1.47,4.05a4.73,4.73,0,0,0,1.1,3.45l.08.15h-.08l.08.29a11.26,11.26,0,0,0,.44,4.56q0,.08.15.15a.62.62,0,0,0,.29-.07q.07,0,.15-.15a.4.4,0,0,1,.15-.29A7.44,7.44,0,0,1,31.34,78a.21.21,0,0,0-.07-.15,20,20,0,0,0,3.38-4M28.55,86.5a2.72,2.72,0,0,0,0,3.39c.64,1.17,1.67,1.47,3.09.88a20.26,20.26,0,0,0,4.48-2.87l.15.15a10.05,10.05,0,0,1,4.12,1s.12,0,.22.15a.85.85,0,0,0,.3-.3v-.14a.67.67,0,0,1-.08-.3,11.64,11.64,0,0,0-4.41-1l-.3-.08v-.07a4.31,4.31,0,0,0-3.38-1.62q-2.87-.59-4.19.81M37,82.6s0-.09-.08-.15a22.22,22.22,0,0,0,2.65-4.63c.54-1.47.2-2.52-1-3.16a2.7,2.7,0,0,0-3.31.22q-1.47,1.4-.81,4.27a5.19,5.19,0,0,0,1.77,3.23l.07.07-.07.08.15.22a11.12,11.12,0,0,0,1.17,4.41.83.83,0,0,0,.22.15.83.83,0,0,0,.22-.15s.1,0,.15-.14a.82.82,0,0,1,.07-.3A8.27,8.27,0,0,1,37,82.6m6.18-3.75A2.67,2.67,0,0,0,40.1,80c-.74,1.17-.64,2.62.29,4.33a4.73,4.73,0,0,0,2.5,2.65L43,87v.07l.14.15a12.81,12.81,0,0,0,2.28,4,.31.31,0,0,0,.22.07.83.83,0,0,0,.22-.15.22.22,0,0,0,.15-.22v-.29a8.37,8.37,0,0,1-2.21-3.68l-.14-.14A21.44,21.44,0,0,0,45,81.65a2.38,2.38,0,0,0-1.83-2.8M35.9,93.12a2.59,2.59,0,0,0,.81,3.24c.93,1,2,1,3.31.07a21.65,21.65,0,0,0,3.53-3.9.54.54,0,0,1,.22.08,8.82,8.82,0,0,1,4.2-.15.65.65,0,0,1,.29.07.91.91,0,0,0,.22-.37.17.17,0,0,1-.07-.14.43.43,0,0,1-.15-.29,13.52,13.52,0,0,0-4.56.21h-.29l-.08-.07a4.28,4.28,0,0,0-3.6-.66c-2,.1-3.24.73-3.83,1.91m15.89,3-.07-.08a4.33,4.33,0,0,0-3.68,0c-1.91.44-3,1.3-3.38,2.58a2.54,2.54,0,0,0,1.32,3q1.7,1.18,3.31-.51a22.7,22.7,0,0,0,2.79-4.49h.23a9.51,9.51,0,0,1,4-.88h.29a.5.5,0,0,0,.15-.37.29.29,0,0,1-.07-.22A.47.47,0,0,1,56.5,95a13.37,13.37,0,0,0-4.42,1.1h-.22l-.07.08M46.94,84.81q-.81,1.91,1,4.19a5,5,0,0,0,3,2.21h.08v.07l.14.15a12.71,12.71,0,0,0,2.94,3.46.23.23,0,0,0,.23,0,1,1,0,0,0,.22-.15.82.82,0,0,0,.07-.29.37.37,0,0,0-.07-.23A9.18,9.18,0,0,1,51.79,91l-.15-.15a21.19,21.19,0,0,0,.44-5.3,2.38,2.38,0,0,0-2.35-2.35,2.6,2.6,0,0,0-2.79,1.62M64.59,97.9a.62.62,0,0,1,.29-.07.81.81,0,0,0,.08-.37.29.29,0,0,1-.08-.22.83.83,0,0,1-.22-.15,12.34,12.34,0,0,0-4.34,1.33H60.1l-.07.07L60,98.42a4.6,4.6,0,0,0-3.67.22c-1.87.63-2.92,1.59-3.16,2.86a2.52,2.52,0,0,0,1.47,3,2.32,2.32,0,0,0,3.23-.74,22.65,22.65,0,0,0,2.58-4.63h.22a8.53,8.53,0,0,1,4-1.18m-5.74-4.26H59s0,.07,0,.07l.15.15A10.82,10.82,0,0,0,62.23,97a.35.35,0,0,0,.3.07.37.37,0,0,0,.22-.22.22.22,0,0,0,.07-.22.37.37,0,0,0-.22-.22,10.9,10.9,0,0,1-2.87-3l-.07-.07-.15-.15A17.42,17.42,0,0,0,59.59,88a2.31,2.31,0,0,0-2.36-2.28,2.58,2.58,0,0,0-2.72,1.84c-.44,1.25,0,2.63,1.25,4.12A4.86,4.86,0,0,0,58.85,93.64Z"/></g><g id="Layer0_11_MEMBER_3_FILL" data-name="Layer0 11 MEMBER 3 FILL"><path class="cls-2" d="M110.88,82.51q4.83-.77,2.61-2.62a6.92,6.92,0,0,1-.74-1.52c-1.57-3.07-1.84-5.53-.79-7.4q.89-1.89,6-2.27c3.38-.25,4.52-1,3.42-2.31q-2.49-2.11-3.79-8.72a39.7,39.7,0,0,1-1.16-9.75c.12-2-.1-2.86-.68-2.53a49.77,49.77,0,0,1-10.94,6.37q-6.09,2.43-9.18,1.8c-.93,0-.69,1.38.72,4.18s2,4.81,1.35,6q-1.45,3-6.45,3.85l-1.7.32c-1.15.18-1.16,1.39,0,3.65A6.23,6.23,0,0,1,89.35,78q-1.27.67,1.57,2.89a6.43,6.43,0,0,1,2.3,6.33,6.5,6.5,0,0,1,1.2.81,8.39,8.39,0,0,1,1.88,1.08c.36-1.29,1.49-2.18,3.38-2.69,2-.67,3.44-.79,4.34-.37s1.49.11,1.62-.89Q106.3,83.47,110.88,82.51Z"/></g><g id="Layer0_11_MEMBER_4_FILL" data-name="Layer0 11 MEMBER 4 FILL"><path class="cls-2" d="M82.77,65.78a9.93,9.93,0,0,1-2,.34c-3.87.56-6.66-.08-8.37-1.9-1.12-1.11-1.2-3.57-.21-7.38s.57-5.34-1.24-4.61q-3.19,1.88-10.93.88T49,50.84c-2.17-.94-3.15-1-3-.22A55.44,55.44,0,0,1,48.9,64.87q.41,7.5-1.45,10.69c-.33,1,1.28,1.2,4.81.7s6-.29,7.09.85c1.79,1.74,2.4,4.54,1.82,8.38-.1.74-.19,1.41-.29,2-.24,1.32,1.09,1.76,4,1.34a7.1,7.1,0,0,1,7,2.6q.23,1.63,3.72-.68a7.37,7.37,0,0,1,7.72-.1,13.39,13.39,0,0,1,1.31-1.11A24.89,24.89,0,0,1,86.51,88c-1.27-.85-1.83-2.39-1.7-4.62q0-3.64,1.15-5c.85-.85.75-1.53-.32-2-1.09-.89-1.4-3.11-.92-6.68S84.65,64.66,82.77,65.78Z"/></g><g id="Layer0_11_MEMBER_5_FILL" data-name="Layer0 11 MEMBER 5 FILL"><path class="cls-4" d="M71.51,99.93a12,12,0,0,0,8.83,3.68A12.57,12.57,0,0,0,92.77,91.18a12.07,12.07,0,0,0-3.68-8.83,11.92,11.92,0,0,0-8.75-3.6A12.29,12.29,0,0,0,67.91,91.18,11.92,11.92,0,0,0,71.51,99.93Z"/></g><g id="Layer0_11_MEMBER_6_FILL" data-name="Layer0 11 MEMBER 6 FILL"><path class="cls-3" d="M88.3,125.65c1.6.41,2.34-1.17,2.24-4.72q-.3-5.55,4-8.2,1.93-.17-.33-4.76a9.19,9.19,0,0,1,.71-9.54,17.93,17.93,0,0,1-1.08-1.87,411.85,411.85,0,0,0-52.9,42.7,68,68,0,0,1,17.94-1.74q9.33.45,13,3.19c1.18.49,1.7-1.49,1.57-5.91-.29-4.56.31-7.46,1.8-8.72q3.65-2.86,10.53-1.1A15.59,15.59,0,0,1,88.3,125.65Z"/><path class="cls-5" d="M41.65,135.55q-2.26,3.9-.72,3.71a411.85,411.85,0,0,1,52.9-42.7,12.45,12.45,0,0,1-1.77-2.5q-1.8,2.16-5.9,1.59-4.39-.48-5.9-2.13c-1-1.11-1.87-1-2.59.19-1.28,1.25-4.09,1.34-8.45.26s-6-.52-4.84,1.92c.05.72.09,1.57.12,2.56q.19,7.2-3.46,10.06-2.24,1.89-9.14-.7c-4.51-1.68-6.45-1.35-5.79,1Q48,113,45.83,122.34T41.65,135.55Z"/></g><g id="Layer0_11_MEMBER_7_FILL" data-name="Layer0 11 MEMBER 7 FILL"><path class="cls-4" d="M103.26,85.09a7.63,7.63,0,0,0,7.57-7.57,7.37,7.37,0,0,0-2.24-5.38A7.26,7.26,0,0,0,103.26,70a7.5,7.5,0,0,0-7.58,7.57,7.56,7.56,0,0,0,7.58,7.57Z"/></g><g id="Layer0_11_MEMBER_8_FILL" data-name="Layer0 11 MEMBER 8 FILL"><path class="cls-3" d="M147.13,82.67q-1.37-3.78.58-12a53.69,53.69,0,0,1,6-14.82,361,361,0,0,0-49.81,34.53,12.65,12.65,0,0,1,1.17,1.43,8.1,8.1,0,0,1,8.25,1.7c2.33,2.14,3.72,2.63,4.17,1.5a7.69,7.69,0,0,1,7.93-1.47c3.1,1,4.64.85,4.64-.53q0-1.07.06-2.37.26-6.34,3.64-8.7,2.17-1.5,7.84.47T147.13,82.67Z"/><path class="cls-5" d="M153.73,55.9c.32-.84-.8-1-3.36-.45s-6.73.68-12.42.29-9.59-1.37-11.64-3.11q-2.81-1.82-2.32,4.65c.29,4.38-.28,7.08-1.74,8.09q-3.37,2.34-9.42.35c-.83-.25-1.58-.51-2.23-.77q-2.64-2.37-2.83,3.66t-2.42,7.23c-1.14.34-1.4,1-.76,2.13s.81,3,.43,5.52-1.42,4.15-3,4.75c.71.76,1.33,1.49,1.88,2.19A361,361,0,0,1,153.73,55.9Z"/></g><g id="Layer0_11_MEMBER_9_FILL" data-name="Layer0 11 MEMBER 9 FILL"><path class="cls-6" d="M109.09,102.29a11.76,11.76,0,0,0,3.68-8.75,12.43,12.43,0,0,0-12.43-12.43A12.31,12.31,0,0,0,87.91,93.54a11.89,11.89,0,0,0,3.61,8.75,12,12,0,0,0,8.82,3.68A11.8,11.8,0,0,0,109.09,102.29Z"/></g></g></g></svg>