<svg xmlns="http://www.w3.org/2000/svg" viewBox="0 0 186.1 186.1"><defs><style>.cls-1{fill:none;}.cls-2{fill:#f66;}</style></defs><g id="Layer_2" data-name="Layer 2"><g id="OBJECTS"><rect class="cls-1" width="186.1" height="186.1"/><path class="cls-2" d="M76.62,112.62c4.56-25.84,23.56-23.18,27.55-42.55,1.13-5.7-1.9-12.54-9.31-12.54-8.93,0-13.3,4.94-14.63,12.73-.57,3.8-2.47,5.51-6.27,4.74L52.31,70.26c-3.42-.76-5.13-2.85-4.94-6.27,1.14-13.68,8.36-39.13,47.49-39.13,42.55,0,44.07,33.62,43.88,39.32,0,31.53-22,34.19-28.87,50-1.34,3.23-3.05,4.75-6.46,4.75H81.94C78.14,118.89,75.86,116.61,76.62,112.62Zm-1,21.65v21.28c0,3.61,2.09,5.7,5.7,5.7h21.28c3.79,0,5.7-2.09,5.7-5.7V134.27c0-3.8-1.91-5.7-5.7-5.7H81.37C77.76,128.57,75.67,130.47,75.67,134.27Z"/></g></g></svg>