<svg xmlns="http://www.w3.org/2000/svg" xmlns:xlink="http://www.w3.org/1999/xlink" viewBox="0 0 186.1 186.1"><defs><style>.cls-1{fill:none;}.cls-2{fill:#ffc0b4;}.cls-3{fill:url(#radial-gradient);}.cls-4{fill:#e5dada;}.cls-5{fill:#e56060;}.cls-6{fill:#f9f2f9;}.cls-7{fill:#ff7e7e;}.cls-8{fill:#5f534c;}.cls-9{fill:url(#linear-gradient);}</style><radialGradient id="radial-gradient" cx="94.63" cy="100.86" r="47.7" gradientUnits="userSpaceOnUse"><stop offset="0.28" stop-color="#ffe0cd"/><stop offset="1" stop-color="#ffc0b4"/></radialGradient><linearGradient id="linear-gradient" x1="82.17" y1="85.01" x2="112.23" y2="23.35" gradientUnits="userSpaceOnUse"><stop offset="0.27" stop-color="#d6384e"/><stop offset="1" stop-color="#ec4e4e"/></linearGradient></defs><g id="Layer_2" data-name="Layer 2"><g id="OBJECTS"><rect class="cls-1" width="186.1" height="186.1"/><g id="Layer0_9_FILL" data-name="Layer0 9 FILL"><path class="cls-2" d="M47.93,103.26q-4.32.48-5.82,2.89a7.45,7.45,0,0,0-.73,4.71q.42,3.8,6.38,5.69a30.46,30.46,0,0,0,3.56.9,7.83,7.83,0,0,0,.93.11c0-.07,0-.15,0-.25a46.93,46.93,0,0,1,.72-13.68,6.31,6.31,0,0,0-.85-.15,13,13,0,0,0-4.16-.22m96.84-3.83A7.5,7.5,0,0,0,143,95c-1.31-1.35-3.41-1.88-6.3-1.56a14.26,14.26,0,0,0-4.06,1.07A47,47,0,0,1,136.49,108a25.34,25.34,0,0,0,3.28-1.61Q145.19,103.21,144.77,99.43Z"/><path class="cls-3" d="M119.56,73.44l-.09-.08L61.34,79.72a96.42,96.42,0,0,0-8.4,23.91,46.93,46.93,0,0,0-.72,13.68c0,.1,0,.18,0,.25q2.89,25,31.78,25.4a83.46,83.46,0,0,0,27-2.91q28.26-6.65,25.5-32s0-.07,0-.12a47,47,0,0,0-3.82-13.48A97,97,0,0,0,119.56,73.44Z"/></g><g id="Layer0_9_MEMBER_0_FILL" data-name="Layer0 9 MEMBER 0 FILL"><path class="cls-4" d="M126.44,125.33a19.64,19.64,0,0,0,.75-5c-.43.25-.87.5-1.34.73,0,.42,0,.82-.07,1.22a10.28,10.28,0,0,1-3.2,6.23,13.85,13.85,0,0,1-3.83,2.72,15.38,15.38,0,0,1-5.15,1.43,21.79,21.79,0,0,1-11.8-1.92,5.4,5.4,0,0,1-.34,1.17l.1.07a5.12,5.12,0,0,0,.93.52,19.44,19.44,0,0,0,3.38,1.14,23.41,23.41,0,0,0,8.34.71,16.81,16.81,0,0,0,7.25-2.29A10.8,10.8,0,0,0,123,131a10.42,10.42,0,0,0,2.45-3.19,14,14,0,0,0,1-2.45M91.17,132l0-.08A.14.14,0,0,1,91,132a21.77,21.77,0,0,1-11,4.38,14.53,14.53,0,0,1-9.66-2.12,9.91,9.91,0,0,1-4.76-6.53c-.45-.11-.89-.24-1.33-.39q1.78,7.18,6.54,9.84,3.65,2.06,9.29,1.44a23.18,23.18,0,0,0,8-2.5A14.08,14.08,0,0,0,92,133.53,8.34,8.34,0,0,1,91.17,132Z"/><path class="cls-5" d="M93.84,129.36a14.92,14.92,0,0,1-2.57,2.49.56.56,0,0,1-.15.1l0,.08a8.34,8.34,0,0,0,.79,1.5l.15.27a8,8,0,0,1,3.22-2.22q2.76-.9,5.81,1.24a6.35,6.35,0,0,0,.32-.87,5.4,5.4,0,0,0,.34-1.17l-.1-.07h0a13,13,0,0,1-4.44-3.19c-.26-.31-.5-.63-.73-1-.08-.16-.17-.32-.26-.48a8.77,8.77,0,0,1-.44-1c0,.09,0,.18-.05.26s0,.17,0,.25A9,9,0,0,1,93.84,129.36Z"/><path class="cls-6" d="M125.3,79.86q-3.37-4.33-6.06-7.39l-2.31.25q4.68,7.88,9.44,15.74a49.12,49.12,0,0,1,6.52,18.06q1.46,9.42-5.7,13.85a19.64,19.64,0,0,1-.75,5,14,14,0,0,1-1,2.45A10.42,10.42,0,0,1,123,131a10.8,10.8,0,0,1-1.51,1.13,16.81,16.81,0,0,1-7.25,2.29,23.41,23.41,0,0,1-8.34-.71,19.44,19.44,0,0,1-3.38-1.14,5.12,5.12,0,0,1-.93-.52l-.1-.07a6.35,6.35,0,0,1-.32.87c-.13.34-.28.72-.46,1.13a4.46,4.46,0,0,1-.56,1,3.91,3.91,0,0,1-3,1.66,4.22,4.22,0,0,1-3.94-1.36,17,17,0,0,1-1.12-1.43l-.15-.27a14.08,14.08,0,0,1-3.85,2.59,23.18,23.18,0,0,1-8,2.5q-5.64.62-9.29-1.44-4.76-2.66-6.54-9.84Q56.1,124.68,55.47,115a49.13,49.13,0,0,1,2.46-19q2.94-8.72,5.81-17.41l-2.64.29q-2.24,4.14-4.48,9-2.9,6.36-5.39,13.69-4,12.75-2.82,23.76a13.45,13.45,0,0,0,2.36,5.91q.43,13.65,6.37,20.5,4.88,5.59,10.72,5c.39,0,.7-.09,1-.14a17.2,17.2,0,0,0,6.74,8.6,19.79,19.79,0,0,0,9.39,3.48,12.14,12.14,0,0,0,5.69,6.18Q94.68,177,101.57,176q7.23-1.41,10.29-4a11,11,0,0,0,3.8-6.84,20,20,0,0,0,8.42-5.43,16.82,16.82,0,0,0,4.67-9.85c.28,0,.61,0,1-.07q5.85-.65,9.4-7.16,4.29-8,1.78-21.39l.33-.87a15.22,15.22,0,0,0,.75-4.17,9.88,9.88,0,0,0,0-1.25,50.14,50.14,0,0,0-2.37-10.55,67.58,67.58,0,0,0-5.53-12,133.25,133.25,0,0,0-8.76-12.56M88.62,115.2c-.53,0-1.08,0-1.66.1q-3.09.35-7.59,5t-8.63,5.08a8.16,8.16,0,0,1-5.11-1l-.26-.13a13.11,13.11,0,0,0,0,2.41,7.62,7.62,0,0,0,.2,1.06,9.91,9.91,0,0,0,4.76,6.53A14.53,14.53,0,0,0,80,136.38,21.77,21.77,0,0,0,91,132a.14.14,0,0,0,.08-.05.56.56,0,0,0,.15-.1,14.92,14.92,0,0,0,2.57-2.49,9,9,0,0,0,1.88-3.75c0-.08,0-.16,0-.25s0-.17.05-.26a8.77,8.77,0,0,0,.44,1c.09.16.18.32.26.48.23.33.47.65.73,1a13,13,0,0,0,4.44,3.19h0l.1.07a21.79,21.79,0,0,0,11.8,1.92,15.38,15.38,0,0,0,5.15-1.43,13.85,13.85,0,0,0,3.83-2.72,10.28,10.28,0,0,0,3.2-6.23c0-.4.06-.8.07-1.22s0-.68-.07-1a11.93,11.93,0,0,0-.39-2,1.27,1.27,0,0,0-.08-.36l-.23.19a3.15,3.15,0,0,1-.3.24,8.07,8.07,0,0,1-4.48,1.78q-4.12.47-9.52-3.08t-8.48-3.21c-.47,0-.91.12-1.32.19l.11.24a5,5,0,0,1,0,4.63c-.78,1.25-2.35,2.09-4.69,2.51-.44.08-.86.14-1.28.18l-.62.07H94.1a9.52,9.52,0,0,1-3.38-.34A3.31,3.31,0,0,1,88.3,118a7.13,7.13,0,0,1,.28-2.78s0,0,0,0M68.79,102.52a2.34,2.34,0,0,1,2.16.68,1.67,1.67,0,0,0,1.66.66,1,1,0,0,0,.82-1.26,2.91,2.91,0,0,0-1.18-2,4.52,4.52,0,0,0-3.38-.76c-2,.25-3.27.76-3.88,1.55a3,3,0,0,0-.72,2.21q.12,1.07,1.08,1.05a1.66,1.66,0,0,0,1.48-1,2.33,2.33,0,0,1,2-1.13m50.6-4.62a1.65,1.65,0,0,0,1.66.65c.63-.12.9-.54.82-1.25a2.87,2.87,0,0,0-1.18-2,4.5,4.5,0,0,0-3.38-.76c-2,.24-3.27.76-3.87,1.55a2.87,2.87,0,0,0-.72,2.21c.08.71.43,1.06,1.07,1a1.68,1.68,0,0,0,1.48-1,2.81,2.81,0,0,1,4.12-.45Z"/><path class="cls-7" d="M100.12,134.93a4.46,4.46,0,0,0,.56-1c.18-.41.33-.79.46-1.13q-3-2.15-5.81-1.24a8,8,0,0,0-3.22,2.22,17,17,0,0,0,1.12,1.43,4.22,4.22,0,0,0,3.94,1.36A3.91,3.91,0,0,0,100.12,134.93Z"/><path class="cls-2" d="M93.91,109.41a7.25,7.25,0,0,0-.78.17,5.8,5.8,0,0,0-3.59,3.35,9.93,9.93,0,0,0-.92,2.27s0,0,0,0A7.13,7.13,0,0,0,88.3,118a3.31,3.31,0,0,0,2.42,3.08,9.52,9.52,0,0,0,3.38.34h.41l.62-.07c.42,0,.84-.1,1.28-.18,2.34-.42,3.91-1.26,4.69-2.51a5,5,0,0,0,0-4.63l-.11-.24a7.07,7.07,0,0,0-3.4-3.63A6.6,6.6,0,0,0,93.91,109.41Z"/><path class="cls-8" d="M66.07,109a3.34,3.34,0,0,0,1.26,2.33,3.41,3.41,0,0,0,2.58.76A3.56,3.56,0,0,0,73,108.19a3.39,3.39,0,0,0-1.31-2.36,3.32,3.32,0,0,0-2.54-.72A3.4,3.4,0,0,0,66.07,109m48.44-5.3a3.48,3.48,0,0,0,3.85,3.08,3.52,3.52,0,0,0,3.08-3.84,3.42,3.42,0,0,0-1.3-2.36,3.29,3.29,0,0,0-2.54-.72,3.45,3.45,0,0,0-2.37,1.26A3.51,3.51,0,0,0,114.51,103.65Z"/></g><g id="Layer0_9_MEMBER_1_FILL" data-name="Layer0 9 MEMBER 1 FILL"><path class="cls-9" d="M120.89,25.47A7.91,7.91,0,0,1,118,24a7.69,7.69,0,0,1-2.85-4.65Q90,26.24,73.27,42q-17.32,16.42-15.1,36.7,26.14-3.27,31-4t33.41-3.08a63.82,63.82,0,0,1-5-26.65A62.82,62.82,0,0,1,120.89,25.47Z"/><path class="cls-6" d="M122.15,9.86a7.92,7.92,0,0,0-7.05,8.78c0,.22.05.44.07.66A7.69,7.69,0,0,0,118,24a7.91,7.91,0,0,0,2.87,1.52,8,8,0,0,0,3,.22,7.48,7.48,0,0,0,5.31-3,7.54,7.54,0,0,0,1.74-5.82,7.69,7.69,0,0,0-3-5.35,7.52,7.52,0,0,0-5.82-1.7M107.6,83.59q7.44-.65,12.66-1c3.51-.25,5.73-.43,6.66-.56a1.33,1.33,0,0,0,1.19-1.72,21.39,21.39,0,0,0-1.74-4.86c-1.06-2.27-2.32-3.54-3.8-3.8Q94,74,89.16,74.76t-31,4q-2,.85-2.84,4.53a23.37,23.37,0,0,0-.69,5.12,1.34,1.34,0,0,0,1.57,1.41c.94-.07,3.13-.37,6.58-.88s7.75-1.13,12.83-1.74l16.1-1.93Q100.17,84.23,107.6,83.59Z"/></g></g></g></svg>